<?xml version="1.0" encoding="UTF-8"?>
<svg version="1.1" xmlns="http://www.w3.org/2000/svg" width="440" height="370">
<path d="M0 0 C12.87 0 25.74 0 39 0 C39.66 6.27 40.32 12.54 41 19 C47.35976089 48.60578347 63.0138494 74.44839046 88.72460938 91.11816406 C100.85580707 98.67788782 113.10099365 103.52524841 127 107 C127.33 71.69 127.66 36.38 128 0 C140.87 0 153.74 0 167 0 C168 1 168 1 168.12304783 3.41880131 C168.12212604 4.50190806 168.12120424 5.58501482 168.12025452 6.70094299 C168.12231651 8.55832596 168.12231651 8.55832596 168.12442017 10.45323181 C168.12088056 11.83804345 168.11724574 13.22285485 168.11352539 14.60766602 C168.11324352 16.05607094 168.11340124 17.50447601 168.1139679 18.95288086 C168.11425589 22.89692314 168.1083588 26.84093527 168.10139394 30.78497052 C168.09516078 34.90229469 168.09455663 39.01961948 168.09336853 43.13694763 C168.0902551 50.93905862 168.08204156 58.74115567 168.07201904 66.54326051 C168.06085826 75.42340304 168.05534754 84.30354622 168.05032361 93.18369401 C168.03985896 111.45580392 168.02225929 129.72790084 168 148 C163.02346084 150.48826958 155.55575912 149.10870969 150 149 C149.24912109 148.98743164 148.49824219 148.97486328 147.72460938 148.96191406 C110.98659416 148.18798339 77.98442173 135.83858147 50 112 C49.2678125 111.3915625 48.535625 110.783125 47.78125 110.15625 C23.23911892 89.3898314 8.42734454 59.03998209 1.6875 28.125 C1.51573242 27.38403076 1.34396484 26.64306152 1.16699219 25.87963867 C-0.62363376 17.03959127 0 9.46909628 0 0 Z " fill="#80D163" transform="translate(47,202)"/>
<path d="M0 0 C1 1 1 1 1.12304783 3.43441868 C1.12212604 4.52489978 1.12120424 5.61538088 1.12025452 6.73890686 C1.12231651 8.60891106 1.12231651 8.60891106 1.12442017 10.51669312 C1.12088056 11.91094994 1.11724574 13.30520653 1.11352539 14.69946289 C1.11324353 16.15771991 1.11340124 17.61597707 1.1139679 19.07423401 C1.1142559 23.04513485 1.10835877 27.01600575 1.10139394 30.98689961 C1.09516081 35.13225101 1.09455663 39.27760302 1.09336853 43.42295837 C1.09025509 51.27819327 1.08204154 59.13341432 1.07201904 66.98864311 C1.06085829 75.92924399 1.05534755 84.86984552 1.05032361 93.81045163 C1.03985893 112.20697561 1.02225925 130.6034867 1 149 C-2.68099325 150.22699775 -6.08166692 150.14319812 -9.9140625 150.1328125 C-10.68430756 150.13376923 -11.45455261 150.13472595 -12.24813843 150.13571167 C-13.87375978 150.13639151 -15.49938387 150.13455088 -17.125 150.13037109 C-19.62245721 150.12500546 -22.11973577 150.13033015 -24.6171875 150.13671875 C-26.1953129 150.13605822 -27.77343819 150.13477758 -29.3515625 150.1328125 C-30.10257233 150.13483673 -30.85358215 150.13686096 -31.62734985 150.13894653 C-36.88503878 150.11496122 -36.88503878 150.11496122 -38 149 C-38.1303986 146.57692613 -38.19664827 144.18082275 -38.22119141 141.75585938 C-38.2326973 140.99607788 -38.24420319 140.23629639 -38.25605774 139.45349121 C-38.29299684 136.91695281 -38.3225431 134.38039057 -38.3515625 131.84375 C-38.37470712 130.06660653 -38.39809765 128.28946625 -38.42172241 126.5123291 C-38.47034679 122.76280941 -38.51520275 119.01326677 -38.55761719 115.26367188 C-38.60091092 111.46410497 -38.64930798 107.66466672 -38.703125 103.86523438 C-38.99567536 83.20917486 -39.20410765 62.63460264 -38 42 C-68.4988564 49.47713899 -94.18185885 64.78823367 -111 92 C-121.47314284 109.98423021 -126.02672711 128.35636969 -127 149 C-130.74434353 150.24811451 -134.2333017 150.14307934 -138.1328125 150.1328125 C-139.32147415 150.13424759 -139.32147415 150.13424759 -140.53414917 150.13571167 C-142.20684895 150.13639159 -143.87955139 150.13455042 -145.55224609 150.13037109 C-148.12212998 150.12500599 -150.69184021 150.13032968 -153.26171875 150.13671875 C-154.88541705 150.13605821 -156.50911525 150.13477756 -158.1328125 150.1328125 C-159.29213791 150.13584885 -159.29213791 150.13584885 -160.47488403 150.13894653 C-165.88503934 150.11496066 -165.88503934 150.11496066 -167 149 C-168.97017461 112.22340733 -152.43000195 75.56236607 -128.33935547 48.66381836 C-95.43965337 12.81292776 -48.35242649 -3.81273614 0 0 Z " fill="#80D163" transform="translate(402,23)"/>
<path d="M0 0 C27.33259238 0.03048325 53.16446203 3.53639946 77.75219727 16.19091797 C78.44780762 16.54557129 79.14341797 16.90022461 79.86010742 17.265625 C89.58972435 22.29678072 98.3896097 28.12121299 106.75219727 35.19091797 C107.26234375 35.62130371 107.77249023 36.05168945 108.2980957 36.49511719 C138.55309164 62.36630427 155.99516488 98.80017634 159.75219727 138.19091797 C159.92312354 141.86374849 160.06947465 145.52378169 159.75219727 149.19091797 C158.75219727 150.19091797 158.75219727 150.19091797 155.15039062 150.30444336 C153.5475987 150.30428422 151.94480166 150.2985886 150.34204102 150.28857422 C149.50000626 150.28715927 148.6579715 150.28574432 147.79042053 150.2842865 C145.09014392 150.2786706 142.38994899 150.26611545 139.68969727 150.25341797 C137.86352658 150.24840501 136.03735461 150.24384175 134.21118164 150.23974609 C129.72482184 150.22869601 125.23852342 150.21142076 120.75219727 150.19091797 C119.32487652 147.33627649 119.55712649 144.75328252 119.43969727 141.56591797 C118.21571141 119.23425549 109.11858935 97.20216885 94.75219727 80.19091797 C94.07415039 79.37880859 93.39610352 78.56669922 92.69750977 77.72998047 C75.95877372 58.37023237 55.05029405 48.67041044 30.75219727 42.19091797 C30.75219727 77.50091797 30.75219727 112.81091797 30.75219727 149.19091797 C26.39229838 150.06289775 22.47995408 150.33658367 18.08032227 150.32373047 C17.35729919 150.32468719 16.63427612 150.32564392 15.88934326 150.32662964 C14.36983147 150.32730728 12.85031671 150.32548214 11.33081055 150.32128906 C8.99594726 150.31590355 6.66127361 150.32126402 4.32641602 150.32763672 C2.84855101 150.32697648 1.37068611 150.32569643 -0.10717773 150.32373047 C-1.15865997 150.32676682 -1.15865997 150.32676682 -2.23138428 150.3298645 C-7.13282958 150.30589112 -7.13282958 150.30589112 -8.24780273 149.19091797 C-8.34657843 147.28227748 -8.37412481 145.36993481 -8.37478638 143.45874023 C-8.3776062 142.21351593 -8.38042603 140.96829163 -8.3833313 139.68533325 C-8.3813867 138.29266343 -8.37933852 136.89999375 -8.37719727 135.50732422 C-8.37855126 134.05068925 -8.38033118 132.59405463 -8.38250732 131.13742065 C-8.38708186 127.17058861 -8.38529202 123.20378245 -8.38212824 119.23694992 C-8.37960474 115.09473346 -8.38194215 110.95251928 -8.3835144 106.81030273 C-8.38533613 99.85286051 -8.38292971 92.89542889 -8.37817383 85.93798828 C-8.3727312 77.88264269 -8.37449386 69.8273224 -8.38000023 61.77197742 C-8.38453128 54.86838724 -8.38518195 47.96480469 -8.38256156 41.06121349 C-8.38099874 36.93249789 -8.38080516 32.8037942 -8.38409805 28.67507935 C-8.38697665 24.79442275 -8.3850013 20.91379894 -8.3792038 17.0331459 C-8.37787613 15.60483988 -8.37827042 14.17653112 -8.38046646 12.74822617 C-8.38317769 10.80651698 -8.37918339 8.8648018 -8.37478638 6.9230957 C-8.37440935 5.83391342 -8.37403233 4.74473114 -8.37364388 3.62254333 C-8.11414267 -1.39179231 -4.11239522 0.03344278 0 0 Z " fill="#80D163" transform="translate(55.247802734375,22.80908203125)"/>
<path d="M0 0 C12.87 0 25.74 0 39 0 C39.33 34.98 39.66 69.96 40 106 C46.38133579 105.29096269 51.11588743 104.588522 56.875 102.3125 C57.56770996 102.0434082 58.26041992 101.77431641 58.97412109 101.49707031 C70.43078233 96.93993006 80.21597369 90.39744956 90 83 C90.7528125 82.43667969 91.505625 81.87335938 92.28125 81.29296875 C116.85429491 61.40290166 125.10055208 29.83077657 129 0 C141.87 0 154.74 0 168 0 C168 16.52600503 168 16.52600503 166.5 24.375 C166.23823975 25.75812378 166.23823975 25.75812378 165.97119141 27.16918945 C157.94936618 66.77570331 135.79288603 101.28541613 102.17822266 124.02661133 C71.88739894 143.99893455 37.07304107 151.50594973 1 149 C0 148 0 148 -0.12304783 145.56558132 C-0.12212604 144.47510022 -0.12120424 143.38461912 -0.12025452 142.26109314 C-0.12162918 141.01442368 -0.12300385 139.76775421 -0.12442017 138.48330688 C-0.12088056 137.08905006 -0.11724574 135.69479347 -0.11352539 134.30053711 C-0.11324353 132.84228009 -0.11340124 131.38402293 -0.1139679 129.92576599 C-0.1142559 125.95486515 -0.10835877 121.98399425 -0.10139394 118.01310039 C-0.09516081 113.86774899 -0.09455663 109.72239698 -0.09336853 105.57704163 C-0.09025509 97.72180673 -0.08204154 89.86658568 -0.07201904 82.01135689 C-0.06085829 73.07075601 -0.05534755 64.13015448 -0.05032361 55.18954837 C-0.03985893 36.79302279 -0.0215133 18.39651621 0 0 Z " fill="#80D163" transform="translate(235,202)"/>
<path d="M0 0 C12.87 0 25.74 0 39 0 C40 1 40 1 40.12304783 3.41880131 C40.12166514 5.04346144 40.12166514 5.04346144 40.12025452 6.70094299 C40.12162918 7.9391983 40.12300385 9.17745361 40.12442017 10.45323181 C40.12088056 11.83804345 40.11724574 13.22285485 40.11352539 14.60766602 C40.11324352 16.05607094 40.11340124 17.50447601 40.1139679 18.95288086 C40.11425589 22.89692314 40.1083588 26.84093527 40.10139394 30.78497052 C40.09516078 34.90229469 40.09455663 39.01961948 40.09336853 43.13694763 C40.0902551 50.93905862 40.08204156 58.74115567 40.07201904 66.54326051 C40.06085826 75.42340304 40.05534754 84.30354622 40.05032361 93.18369401 C40.03985896 111.45580392 40.02225929 129.72790084 40 148 C39.34 148.33 38.68 148.66 38 149 C37.01 148.67 36.02 148.34 35 148 C35 147.01 35 146.02 35 145 C36.32 144.67 37.64 144.34 39 144 C38.97021844 143.35970919 38.94043688 142.71941837 38.90975285 142.05972481 C38.12044299 124.65294629 37.86448798 107.29001623 37.90234375 89.8671875 C37.90421559 87.28117907 37.90563586 84.69517029 37.90663147 82.10916138 C37.91001497 76.07867803 37.91783521 70.04821656 37.92798096 64.01774132 C37.93930459 57.1321451 37.94469273 50.24654778 37.94967639 43.36094451 C37.9600245 29.24061797 37.97830314 15.12031356 38 1 C25.79 1 13.58 1 1 1 C1 36.31 1 71.62 1 108 C0.67 108 0.34 108 0 108 C0 72.36 0 36.72 0 0 Z " fill="#7DC579" transform="translate(175,202)"/>
<path d="M0 0 C3.47914941 -0.02887814 6.95826831 -0.04675687 10.4375 -0.0625 C11.92733398 -0.07506836 11.92733398 -0.07506836 13.44726562 -0.08789062 C14.39150391 -0.09111328 15.33574219 -0.09433594 16.30859375 -0.09765625 C17.62041626 -0.10551147 17.62041626 -0.10551147 18.95874023 -0.11352539 C21 0 21 0 22 1 C22.09658904 2.91094939 22.12187192 4.82551866 22.12025452 6.73890686 C22.12162918 7.98557632 22.12300385 9.23224579 22.12442017 10.51669312 C22.12088056 11.91094994 22.11724574 13.30520653 22.11352539 14.69946289 C22.11324353 16.15771991 22.11340124 17.61597707 22.1139679 19.07423401 C22.1142559 23.04513485 22.10835877 27.01600575 22.10139394 30.98689961 C22.09516081 35.13225101 22.09455663 39.27760302 22.09336853 43.42295837 C22.09025509 51.27819327 22.08204154 59.13341432 22.07201904 66.98864311 C22.06085829 75.92924399 22.05534755 84.86984552 22.05032361 93.81045163 C22.03985893 112.20697561 22.02225925 130.6034867 22 149 C19.02129623 149.99290126 17.40817115 150.05524548 14.33203125 149.87890625 C12.99301758 149.80639648 12.99301758 149.80639648 11.62695312 149.73242188 C10.69818359 149.67634766 9.76941406 149.62027344 8.8125 149.5625 C7.87212891 149.51029297 6.93175781 149.45808594 5.96289062 149.40429688 C3.64158499 149.27468082 1.32071591 149.13971819 -1 149 C3 147 3 147 20 147 C20 99.15 20 51.3 20 2 C13.07 2 6.14 2 -1 2 C-0.67 1.34 -0.34 0.68 0 0 Z " fill="#79C27C" transform="translate(381,23)"/>
<path d="M0 0 C2.97 0.495 2.97 0.495 6 1 C6 2.32 6 3.64 6 5 C9.8790983 7.07556948 13.58503324 9.00581345 17.875 10.0625 C21 11 21 11 23 14 C18.26903917 13.32414845 14.25551664 11.50580538 9.9375 9.5625 C9.23044922 9.24990234 8.52339844 8.93730469 7.79492188 8.61523438 C4.49180069 7.14821435 1.21182635 5.66013882 -2 4 C-2 3.34 -2 2.68 -2 2 C-1.34 2 -0.68 2 0 2 C0 1.34 0 0.68 0 0 Z " fill="#84D172" transform="translate(126,329)"/>
<path d="M0 0 C1.26457031 0.08378906 2.52914062 0.16757812 3.83203125 0.25390625 C5.4921684 0.35707862 7.15232575 0.45992631 8.8125 0.5625 C10.06256836 0.64661133 10.06256836 0.64661133 11.33789062 0.73242188 C12.14033203 0.78076172 12.94277344 0.82910156 13.76953125 0.87890625 C14.87711792 0.94960327 14.87711792 0.94960327 16.00708008 1.02172852 C18.21188792 1.09929638 18.21188792 1.09929638 21 0 C21.33644531 0.48082031 21.67289063 0.96164062 22.01953125 1.45703125 C24.97048742 3.75609967 28.08708942 3.56983952 31.6875 3.6875 C32.7403418 3.73874023 32.7403418 3.73874023 33.81445312 3.79101562 C35.54241387 3.87329947 37.27118072 3.9383324 39 4 C39 4.33 39 4.66 39 5 C25.50401253 5.59323022 13.16778231 3.94444612 0 1 C0 0.67 0 0.34 0 0 Z " fill="#82CD77" transform="translate(157,345)"/>
<path d="M0 0 C0.33 0 0.66 0 1 0 C3.94228977 11.76915908 5.46275945 23.86541878 5 36 C4.67 36 4.34 36 4 36 C3.81824219 34.17662109 3.81824219 34.17662109 3.6328125 32.31640625 C3.46402922 30.73171883 3.29473184 29.1470861 3.125 27.5625 C3.04636719 26.76005859 2.96773437 25.95761719 2.88671875 25.13085938 C2.66154237 23.07829006 2.33777413 21.03706991 2 19 C1.34 18.67 0.68 18.34 0 18 C0 14.25838897 0.51338171 10.71046443 1 7 C0.34 7 -0.32 7 -1 7 C-0.67 4.69 -0.34 2.38 0 0 Z " fill="#7FC47A" transform="translate(210,136)"/>
<path d="M0 0 C3.04860014 1.01620005 3.86666922 1.77391571 6 4 C6.66 4.33 7.32 4.66 8 5 C7.67 6.65 7.34 8.3 7 10 C7.66 10 8.32 10 9 10 C9.19335938 10.66386719 9.38671875 11.32773438 9.5859375 12.01171875 C11.19357981 17.52266994 11.19357981 17.52266994 13.25 22.875 C14.13852192 25.39247878 13.73390373 26.49424299 13 29 C12.78384033 28.44127197 12.56768066 27.88254395 12.3449707 27.30688477 C11.34082358 24.72277283 10.32672448 22.14267252 9.3125 19.5625 C8.80299805 18.24475586 8.80299805 18.24475586 8.28320312 16.90039062 C5.9479526 10.9858776 3.23025319 5.47694911 0 0 Z " fill="#85CE79" transform="translate(158,113)"/>
<path d="M0 0 C1.36420006 4.09260018 -0.2335485 6.47012659 -1.9375 10.1875 C-2.22818359 10.84169922 -2.51886719 11.49589844 -2.81835938 12.16992188 C-3.53695343 13.78381344 -4.2673588 15.39243655 -5 17 C-5.33 17 -5.66 17 -6 17 C-6.185625 15.4221875 -6.185625 15.4221875 -6.375 13.8125 C-6.91140782 10.54041229 -7.63880035 7.99463924 -9 5 C-6.525 5.99 -6.525 5.99 -4 7 C-1.90493748 3.55291141 -1.90493748 3.55291141 0 0 Z " fill="#82CD72" transform="translate(393,251)"/>
<path d="M0 0 C1.29319847 3.8795954 0.53678333 6.9587119 -0.1875 10.875 C-0.32260986 11.62644287 -0.45771973 12.37788574 -0.59692383 13.15209961 C-1.87800582 19.95069158 -3.75677611 26.45251909 -6 33 C-7.76949352 26.82017794 -5.89384689 21.48152539 -3.83203125 15.62109375 C-2.20823606 10.50575771 -1.14198757 5.24018411 0 0 Z " fill="#81C87B" transform="translate(401,218)"/>
<path d="M0 0 C0 0.99 0 1.98 0 3 C-1.37695312 4.2109375 -1.37695312 4.2109375 -3.28125 5.375 C-3.95800781 5.80296875 -4.63476562 6.2309375 -5.33203125 6.671875 C-6.77734375 7.55729167 -8.22265625 8.44270833 -9.66796875 9.328125 C-10.34472656 9.75609375 -11.02148438 10.1840625 -11.71875 10.625 C-12.34716797 11.00914062 -12.97558594 11.39328125 -13.62304688 11.7890625 C-14.07744141 12.18867188 -14.53183594 12.58828125 -15 13 C-15 13.99 -15 14.98 -15 16 C-17.31 15.67 -19.62 15.34 -22 15 C-18.27645645 12.11449183 -14.36201703 9.53744523 -10.4375 6.9375 C-9.76525391 6.49083984 -9.09300781 6.04417969 -8.40039062 5.58398438 C-7.15196545 4.75459367 -5.90322339 3.9256796 -4.65405273 3.09741211 C-3.10122696 2.06716091 -1.55053759 1.03369173 0 0 Z " fill="#81CA7B" transform="translate(324,286)"/>
<path d="M0 0 C3.34373475 0.55728913 6.03312999 1.35173889 9 3 C9 3.66 9 4.32 9 5 C10.051875 5.185625 11.10375 5.37125 12.1875 5.5625 C16.95997108 6.8720195 18.49891852 9.90732121 21 14 C18.33751182 12.71673197 15.8584337 11.3243872 13.3984375 9.6875 C12.41617188 9.03394531 12.41617188 9.03394531 11.4140625 8.3671875 C10.74117187 7.91601562 10.06828125 7.46484375 9.375 7 C8.694375 6.54882812 8.01375 6.09765625 7.3125 5.6328125 C6.66023438 5.19710937 6.00796875 4.76140625 5.3359375 4.3125 C4.74345215 3.91675781 4.1509668 3.52101563 3.54052734 3.11328125 C2 2 2 2 0 0 Z " fill="#8CCC84" transform="translate(117,75)"/>
<path d="M0 0 C2.875 0.25 2.875 0.25 6 1 C7.125 2.875 7.125 2.875 8 5 C10.03317007 6.73425773 10.03317007 6.73425773 12 8 C11.01 8.495 11.01 8.495 10 9 C7.56442428 8.09176973 5.23804483 7.13171929 2.875 6.0625 C2.21628906 5.77181641 1.55757813 5.48113281 0.87890625 5.18164062 C-0.75049505 4.46139802 -2.37566132 3.73158857 -4 3 C-3.401875 2.855625 -2.80375 2.71125 -2.1875 2.5625 C-0.43849596 2.1127561 1.28677023 1.57107659 3 1 C2.01 0.67 1.02 0.34 0 0 Z " fill="#81D176" transform="translate(105,66)"/>
<path d="M0 0 C4.95757898 1.54826599 9.63810401 3.51780938 14.375 5.625 C15.11105469 5.94984375 15.84710938 6.2746875 16.60546875 6.609375 C18.40470969 7.40384503 20.20250496 8.20158771 22 9 C20.02 9.99 20.02 9.99 18 11 C18 10.34 18 9.68 18 9 C16.68 9 15.36 9 14 9 C14 8.34 14 7.68 14 7 C13.28457031 6.87753906 12.56914062 6.75507813 11.83203125 6.62890625 C8.94887287 5.98864625 6.41407527 5.06448444 3.6875 3.9375 C2.36298828 3.39416016 2.36298828 3.39416016 1.01171875 2.83984375 C0.34785156 2.56269531 -0.31601563 2.28554688 -1 2 C-0.67 1.34 -0.34 0.68 0 0 Z " fill="#82CD78" transform="translate(140,297)"/>
<path d="M0 0 C0.33 0 0.66 0 1 0 C1 2.64 1 5.28 1 8 C0.34 8 -0.32 8 -1 8 C-0.87625 9.8253125 -0.87625 9.8253125 -0.75 11.6875 C-0.72719833 15.9818143 -1.98219543 17.89074681 -5 21 C-5.33 21.66 -5.66 22.32 -6 23 C-6.66 22.67 -7.32 22.34 -8 22 C-7.67386719 21.24976563 -7.34773438 20.49953125 -7.01171875 19.7265625 C-4.24247112 13.24047807 -1.8520496 6.80590585 0 0 Z " fill="#83CA77" transform="translate(360,228)"/>
<path d="M0 0 C2.6875 0.875 2.6875 0.875 5 2 C5 2.99 5 3.98 5 5 C6.98 5 8.96 5 11 5 C11 5.33 11 5.66 11 6 C5.0819503 7.32854177 2.22270869 6.66464729 -3 4 C-3 3.34 -3 2.68 -3 2 C-2.01 1.34 -1.02 0.68 0 0 Z " fill="#86D36D" transform="translate(193,344)"/>
<path d="M0 0 C3.9252025 3.70090521 6.94580156 7.54959656 10 12 C9.67 12.66 9.34 13.32 9 14 C8.01 13.67 7.02 13.34 6 13 C5.4375 11.125 5.4375 11.125 5 9 C4.34 8.01 3.68 7.02 3 6 C-0.08365871 5.7497843 -0.08365871 5.7497843 -3 6 C-2.67 4.68 -2.34 3.36 -2 2 C-1.34 2 -0.68 2 0 2 C0 1.34 0 0.68 0 0 Z " fill="#83CE72" transform="translate(182,80)"/>
<path d="M0 0 C1.3274855 3.98245651 -0.00092171 6.44789543 -1.4375 10.1875 C-1.68048828 10.84169922 -1.92347656 11.49589844 -2.17382812 12.16992188 C-2.7743293 13.78303286 -3.38609203 15.3919435 -4 17 C-6.03125 13.3125 -6.03125 13.3125 -5.75 10.5 C-4.51690244 6.38967481 -2.64469169 3.36597124 0 0 Z " fill="#83CB76" transform="translate(282,128)"/>
<path d="M0 0 C0.66 0 1.32 0 2 0 C2 4.95 2 9.9 2 15 C4.97 15.495 4.97 15.495 8 16 C8 16.33 8 16.66 8 17 C5.69 17 3.38 17 1 17 C-0.53266582 13.93466836 -0.10276471 10.73245728 -0.0625 7.375 C-0.05798828 6.66859375 -0.05347656 5.9621875 -0.04882812 5.234375 C-0.03703875 3.48954725 -0.01910324 1.744763 0 0 Z " fill="#7BCB7F" transform="translate(175,156)"/>
<path d="M0 0 C0 0.33 0 0.66 0 1 C-6.625 2.25 -6.625 2.25 -10 0 C-12.0196387 0 -14.03983124 0.00301529 -16.05859375 0.0625 C-18.44036574 -0.01417676 -20.02613943 -0.68409295 -22 -2 C-15.40547638 -5.29726181 -6.64014016 -1.67750909 0 0 Z " fill="#84CD7A" transform="translate(104,28)"/>
<path d="M0 0 C4.67105792 1.55701931 8.08705685 4.08447373 12 7 C8.25 10 8.25 10 6 10 C6.33 8.35 6.66 6.7 7 5 C5.35 4.67 3.7 4.34 2 4 C2 3.34 2 2.68 2 2 C1.34 2 0.68 2 0 2 C0 1.34 0 0.68 0 0 Z " fill="#83CD71" transform="translate(139,43)"/>
<path d="M0 0 C0.99 0.66 1.98 1.32 3 2 C2.34 3.32 1.68 4.64 1 6 C0.01 6 -0.98 6 -2 6 C-2.0825 6.5775 -2.165 7.155 -2.25 7.75 C-3.20531013 10.6159304 -4.78469173 11.9990764 -7 14 C-5.53967505 8.68972746 -3.01679014 4.53669968 0 0 Z " fill="#85CF77" transform="translate(259,90)"/>
<path d="M0 0 C2.31 1.65 4.62 3.3 7 5 C5.1875 6.0625 5.1875 6.0625 3 7 C2.01 6.67 1.02 6.34 0 6 C-1 3 -1 3 0 0 Z M-2 5 C-1.34 5.66 -0.68 6.32 0 7 C-0.66 7.66 -1.32 8.32 -2 9 C-2.66 8.34 -3.32 7.68 -4 7 C-3.34 7 -2.68 7 -2 7 C-2 6.34 -2 5.68 -2 5 Z " fill="#85D06F" transform="translate(117,279)"/>
<path d="M0 0 C-1.1875 1.5 -1.1875 1.5 -3 3 C-5.6875 3.1875 -5.6875 3.1875 -8 3 C-8.33 3.66 -8.66 4.32 -9 5 C-11.97 4.505 -11.97 4.505 -15 4 C-12.18438333 2.52790818 -9.38026161 1.34273182 -6.375 0.3125 C-5.59898437 0.04050781 -4.82296875 -0.23148437 -4.0234375 -0.51171875 C-2 -1 -2 -1 0 0 Z " fill="#80CA74" transform="translate(295,305)"/>
<path d="M0 0 C0.99 0.33 1.98 0.66 3 1 C0.36 3.64 -2.28 6.28 -5 9 C-6 5 -6 5 -5.0625 2.75 C-4.711875 2.1725 -4.36125 1.595 -4 1 C-3.34 1.33 -2.68 1.66 -2 2 C-1.34 1.34 -0.68 0.68 0 0 Z " fill="#86D072" transform="translate(359,304)"/>
<path d="M0 0 C0.226875 0.556875 0.45375 1.11375 0.6875 1.6875 C1.99203598 4.22472385 1.99203598 4.22472385 4.625 6.625 C7 9 7 9 7 11 C6.34 11 5.68 11 5 11 C4.67 11.99 4.34 12.98 4 14 C-0.59225513 4.58997722 -0.59225513 4.58997722 0 0 Z " fill="#89CF78" transform="translate(56,251)"/>
<path d="M0 0 C0.66 0 1.32 0 2 0 C2.33 0.99 2.66 1.98 3 3 C1.21118264 4.00508801 -0.58114696 5.00392736 -2.375 6 C-3.37273437 6.556875 -4.37046875 7.11375 -5.3984375 7.6875 C-8 9 -8 9 -10 9 C-9.25 7.0625 -9.25 7.0625 -8 5 C-6.125 4.3125 -6.125 4.3125 -4 4 C-2.88625 3.7215625 -2.88625 3.7215625 -1.75 3.4375 C-1.1725 3.293125 -0.595 3.14875 0 3 C0 2.01 0 1.02 0 0 Z " fill="#8CD57A" transform="translate(330,326)"/>
<path d="M0 0 C3.3 1.98 6.6 3.96 10 6 C9.01 6.66 8.02 7.32 7 8 C4.50638429 6.79618552 2.31856917 5.54571278 0 4 C0 2.68 0 1.36 0 0 Z " fill="#82CA71" transform="translate(129,289)"/>
<path d="M0 0 C-3.01447835 2.57075841 -5.35979771 3.52207066 -9.25 4.1875 C-10.58804687 4.42533203 -10.58804687 4.42533203 -11.953125 4.66796875 C-12.96632813 4.83232422 -12.96632813 4.83232422 -14 5 C-5.33617859 -1.7787262 -5.33617859 -1.7787262 0 0 Z " fill="#88D07B" transform="translate(335,33)"/>
<path d="M0 0 C0.33 0 0.66 0 1 0 C1.12375 0.94875 1.2475 1.8975 1.375 2.875 C1.71687177 6.08667191 1.71687177 6.08667191 4 8 C3.01 9.485 3.01 9.485 2 11 C1.01 10.67 0.02 10.34 -1 10 C-0.67 6.7 -0.34 3.4 0 0 Z " fill="#7CCD75" transform="translate(362,218)"/>
<path d="M0 0 C0.99 0.33 1.98 0.66 3 1 C-1.455 4.465 -1.455 4.465 -6 8 C-6.66 7.01 -7.32 6.02 -8 5 C-7 3 -7 3 -4 1.9375 C-2.515 1.4734375 -2.515 1.4734375 -1 1 C-0.67 0.67 -0.34 0.34 0 0 Z " fill="#85CB79" transform="translate(321,80)"/>
<path d="M0 0 C2.29013653 3.4352048 2.17842973 4.985331 2 9 C3.32 9.66 4.64 10.32 6 11 C4.34385343 11.38218767 2.67542976 11.71395102 1 12 C0 11 0 11 -0.09765625 8.49609375 C-0.08605469 7.48675781 -0.07445312 6.47742188 -0.0625 5.4375 C-0.05347656 4.42558594 -0.04445313 3.41367187 -0.03515625 2.37109375 C-0.02355469 1.58863281 -0.01195312 0.80617188 0 0 Z " fill="#6DCD81" transform="translate(273,299)"/>
<path d="M0 0 C0.66 0.66 1.32 1.32 2 2 C2.99 2.33 3.98 2.66 5 3 C2.69 4.65 0.38 6.3 -2 8 C-2 2 -2 2 0 0 Z " fill="#87CE75" transform="translate(336,320)"/>
<path d="M0 0 C0.33 0.99 0.66 1.98 1 3 C-0.9375 6.1875 -0.9375 6.1875 -3 9 C-4.32 8.67 -5.64 8.34 -7 8 C-4.69 5.36 -2.38 2.72 0 0 Z " fill="#82CE76" transform="translate(342,267)"/>
<path d="M0 0 C0.66 0 1.32 0 2 0 C4 3 4 3 4 6 C4.99 6 5.98 6 7 6 C6.67 7.65 6.34 9.3 6 11 C3.13546142 7.58983503 1.65296434 4.09305456 0 0 Z " fill="#85CB7A" transform="translate(61,266)"/>
<path d="M0 0 C0.33 0 0.66 0 1 0 C1.85298376 3.67387495 2.10789471 7.0447393 2.0625 10.8125 C2.05347656 11.78832031 2.04445312 12.76414063 2.03515625 13.76953125 C2.02355469 14.50558594 2.01195312 15.24164063 2 16 C1.34 15.34 0.68 14.68 0 14 C0.375 10.375 0.375 10.375 1 7 C0.34 7 -0.32 7 -1 7 C-0.67 4.69 -0.34 2.38 0 0 Z " fill="#7BD275" transform="translate(210,136)"/>
<path d="M0 0 C0 1.65 0 3.3 0 5 C-0.99 5.495 -0.99 5.495 -2 6 C-2.99 5.67 -3.98 5.34 -5 5 C-5 4.01 -5 3.02 -5 2 C-1.125 0 -1.125 0 0 0 Z " fill="#8BCE79" transform="translate(215,345)"/>
<path d="M0 0 C2.8125 -0.3125 2.8125 -0.3125 6 0 C7.875 2.5 7.875 2.5 9 5 C5.7 4.01 2.4 3.02 -1 2 C-0.67 1.34 -0.34 0.68 0 0 Z " fill="#7FD479" transform="translate(372,168)"/>
<path d="M0 0 C4.20626034 1.50223584 5.73900021 4.28550034 8 8 C5.04987143 6.63029745 2.4347778 5.17390875 0 3 C0 2.01 0 1.02 0 0 Z " fill="#85CC76" transform="translate(130,81)"/>
<path d="M0 0 C1.32 0.33 2.64 0.66 4 1 C2.02 3.31 0.04 5.62 -2 8 C-2.33 7.01 -2.66 6.02 -3 5 C-1.5625 2.3125 -1.5625 2.3125 0 0 Z " fill="#82CD79" transform="translate(365,296)"/>
<path d="M0 0 C3.08089673 2.77280706 4.68775452 5.06326356 6 9 C5.236875 8.21625 4.47375 7.4325 3.6875 6.625 C1.09108195 3.92742283 1.09108195 3.92742283 -2 2 C-1.34 1.34 -0.68 0.68 0 0 Z " fill="#82CD73" transform="translate(100,257)"/>
<path d="M0 0 C1 2 1 2 0.8125 4.9375 C0.65485665 8.1063081 0.65485665 8.1063081 3 9.875 C3.66 10.24625 4.32 10.6175 5 11 C3.33388095 11.042721 1.66617115 11.04063832 0 11 C-1 10 -1 10 -1.1328125 7.96875 C-1.13023437 7.1540625 -1.12765625 6.339375 -1.125 5.5 C-1.12757813 4.6853125 -1.13015625 3.870625 -1.1328125 3.03125 C-1 1 -1 1 0 0 Z " fill="#81C68E" transform="translate(236,162)"/>
<path d="M0 0 C2.50037734 2.17424117 3.43628586 3.73045798 4 7 C2.68 7.33 1.36 7.66 0 8 C0 5.36 0 2.72 0 0 Z " fill="#82CD74" transform="translate(194,97)"/>
<path d="M0 0 C1.65 0.99 3.3 1.98 5 3 C3.68 3.99 2.36 4.98 1 6 C0.67 5.34 0.34 4.68 0 4 C-0.99 3.34 -1.98 2.68 -3 2 C-2.01 1.34 -1.02 0.68 0 0 Z " fill="#83CD6C" transform="translate(152,51)"/>
<path d="M0 0 C2.15377564 2.62198774 3.40072174 4.64404172 4 8 C0.83884224 6.63016497 0.0072908 6.0109362 -2 3 C-1.34 3 -0.68 3 0 3 C0 2.01 0 1.02 0 0 Z " fill="#8AD07C" transform="translate(198,104)"/>
<path d="M0 0 C0 3.51716303 -0.82445585 4.37121748 -3 7 C-3.99 6.67 -4.98 6.34 -6 6 C-4 4 -2 2 0 0 Z " fill="#86CD79" transform="translate(294,53)"/>
<path d="M0 0 C0.66 0.33 1.32 0.66 2 1 C1.1875 2.9375 1.1875 2.9375 0 5 C-0.99 5.33 -1.98 5.66 -3 6 C-3.99 5.34 -4.98 4.68 -6 4 C-4.02 2.68 -2.04 1.36 0 0 Z " fill="#89C97A" transform="translate(301,48)"/>
</svg>
